<svg xmlns="http://www.w3.org/2000/svg" width="37.998" height="37.998" viewBox="0 0 37.998 37.998">
  <g id="그룹_578" data-name="그룹 578" transform="translate(-1662 -645)">
    <path id="합치기_5" data-name="합치기 5" d="M0,19A19,19,0,1,1,19,38,19,19,0,0,1,0,19Z" transform="translate(1661.999 645.002)" opacity="0"/>
    <g id="logo-youtube" transform="translate(1670.975 656.933)">
      <g id="그룹_38" data-name="그룹 38" transform="translate(0)">
        <path id="빼기_1" data-name="빼기 1" d="M10.024,14.129c-.063,0-6.294,0-7.834-.422A2.518,2.518,0,0,1,.419,11.922,26.559,26.559,0,0,1,0,7.067,26.554,26.554,0,0,1,.419,2.211,2.518,2.518,0,0,1,2.19.424C3.73.006,9.961,0,10.024,0s6.294.006,7.834.424a2.517,2.517,0,0,1,1.771,1.787,26.53,26.53,0,0,1,.419,4.856,26.535,26.535,0,0,1-.419,4.855,2.517,2.517,0,0,1-1.771,1.784C16.318,14.124,10.087,14.129,10.024,14.129ZM8.291,4.423V9.71L12.94,7.067,8.291,4.423Z" transform="translate(0)" fill="#fff"/>
      </g>
    </g>
  </g>
</svg>
