<svg xmlns="http://www.w3.org/2000/svg" width="38" height="38" viewBox="0 0 38 38">
  <g id="그룹_601" data-name="그룹 601" transform="translate(-1662 -645)">
    <path id="합치기_5" data-name="합치기 5" d="M0,19A19,19,0,1,1,19,38,19,19,0,0,1,0,19Z" transform="translate(1662 645)" opacity="0"/>
    <g id="logo-instargram" transform="translate(1671.93 654.931)">
      <path id="패스_8" data-name="패스 8" d="M298.559,162.787h-7.67a5.237,5.237,0,0,0-5.237,5.237v7.669a5.237,5.237,0,0,0,5.237,5.237h7.67a5.237,5.237,0,0,0,5.237-5.237v-7.669A5.237,5.237,0,0,0,298.559,162.787Zm3.566,13.041a3.476,3.476,0,0,1-3.476,3.476H290.8a3.476,3.476,0,0,1-3.476-3.476v-7.849A3.476,3.476,0,0,1,290.8,164.5h7.849a3.476,3.476,0,0,1,3.476,3.476Z" transform="translate(-285.653 -162.787)" fill="#fff"/>
      <path id="패스_9" data-name="패스 9" d="M355.445,228.543a4.707,4.707,0,1,0,4.708,4.707A4.707,4.707,0,0,0,355.445,228.543Zm0,7.759a3.052,3.052,0,1,1,3.052-3.052A3.052,3.052,0,0,1,355.445,236.3Z" transform="translate(-346.374 -224.134)" fill="#fff"/>
      <circle id="타원_2" data-name="타원 2" cx="1.097" cy="1.097" r="1.097" transform="translate(12.839 3.133)" fill="#fff"/>
    </g>
  </g>
</svg>
