<svg xmlns="http://www.w3.org/2000/svg" width="37.998" height="37.998" viewBox="0 0 37.998 37.998">
  <g id="그룹_579" data-name="그룹 579" transform="translate(-1662 -593)">
    <path id="합치기_6" data-name="합치기 6" d="M0,19A19,19,0,1,1,19,38,19,19,0,0,1,0,19Z" transform="translate(1661.999 593.002)" opacity="0"/>
    <g id="logo-facebook" transform="translate(1677.303 604.242)">
      <path class="icon-color" id="패스_64" data-name="패스 64" d="M48.889,217.19c-.916,0-1.182.426-1.182,1.362v1.554h2.444l-.244,2.512h-2.2v7.621H44.775v-7.621H42.8v-2.512h1.975v-1.511c0-2.532.978-3.873,3.706-3.873a13.264,13.264,0,0,1,1.71.106v2.363" transform="translate(-42.8 -214.721)" fill="#fff"/>
    </g>
  </g>
</svg>


