<svg xmlns="http://www.w3.org/2000/svg" xmlns:xlink="http://www.w3.org/1999/xlink" width="192" height="34" viewBox="0 0 192 34">
  <defs>
    <clipPath id="clip-path">
      <rect id="사각형_1153" data-name="사각형 1153" width="191.017" height="32.956" fill="#fff"/>
    </clipPath>
  </defs>
  <g id="logo-white" transform="translate(0.297 0.726)">
    <g id="_" data-name="=" transform="translate(-0.297 -0.726)" fill="#fff" stroke="#707070" stroke-width="1" opacity="0">
      <rect width="192" height="34" stroke="none"/>
      <rect x="0.5" y="0.5" width="191" height="33" fill="none"/>
    </g>
    <path id="패스_5415" data-name="패스 5415" d="M7.335.392V5.34h-5V.392H0V12.6H2.335V7.413h5V12.6H9.669V.392Z" transform="translate(0 -0.468)" fill="#fff"/>
    <path id="패스_5416" data-name="패스 5416" d="M31.375.392l-3.5,8.746L24.354.392H21.688V12.6h2.2V4.346L27.089,12.6H28.64l3.188-8.258V12.6h2.213V.392Z" transform="translate(-9.499 -0.468)" fill="#fff"/>
    <g id="그룹_1690" data-name="그룹 1690" transform="translate(0 -0.297)">
      <g id="그룹_1689" data-name="그룹 1689" clip-path="url(#clip-path)">
        <path id="패스_5417" data-name="패스 5417" d="M53.64,10.639a9.07,9.07,0,0,0,.949-.052c.331-.035.491-.052.479-.052V7.694h-2.6V5.6H57.4v6.516a13.369,13.369,0,0,1-3.746.575A6.435,6.435,0,0,1,48.884,11a5.9,5.9,0,0,1-1.69-4.346,6.481,6.481,0,0,1,1.725-4.782A7.027,7.027,0,0,1,53.832.011a18.611,18.611,0,0,1,2.909.139V2.241a16.108,16.108,0,0,0-2.892-.157,4.616,4.616,0,0,0-3.241,1.193,4.42,4.42,0,0,0-1.08,3.215,4.29,4.29,0,0,0,1.028,3.04,4.008,4.008,0,0,0,3.084,1.107" transform="translate(-20.671 0)" fill="#fff"/>
        <path id="패스_5418" data-name="패스 5418" d="M9.339,37.964a6.706,6.706,0,0,1-.253,1.856A5.5,5.5,0,0,1,8.363,41.4a4.713,4.713,0,0,1-1.254,1.237,5.348,5.348,0,0,1-1.777.784,11.778,11.778,0,0,1-2.718.279H0V32.285H2.562a11.778,11.778,0,0,1,2.787.314,5.366,5.366,0,0,1,1.768.758A5.03,5.03,0,0,1,8.38,34.567a4.65,4.65,0,0,1,.732,1.551,7.2,7.2,0,0,1,.226,1.847m-1.533,0a4.738,4.738,0,0,0-.688-2.683A3.508,3.508,0,0,0,5.053,33.87a9.419,9.419,0,0,0-2.509-.3H1.534v8.833h1.01a8.994,8.994,0,0,0,2.509-.261,3.652,3.652,0,0,0,2.056-1.472,4.827,4.827,0,0,0,.7-2.709" transform="translate(0 -14.141)" fill="#fff"/>
        <path id="패스_5419" data-name="패스 5419" d="M20.3,37.967h1.394v1.341A3.168,3.168,0,0,1,24.9,37.776v1.289l-.523-.017a2.925,2.925,0,0,0-2.543,1.62v5.418H20.3Z" transform="translate(-8.892 -16.531)" fill="#fff"/>
        <path id="패스_5420" data-name="패스 5420" d="M30.961,31.881H32.6v1.6H30.961Zm.052,3.52h1.533v8.119H31.013Z" transform="translate(-13.561 -13.964)" fill="#fff"/>
        <path id="패스_5421" data-name="패스 5421" d="M41.3,46.262H39.75l-3.293-8.119h1.5l2.6,6.638,2.631-6.638h1.463Z" transform="translate(-15.969 -16.707)" fill="#fff"/>
        <path id="패스_5422" data-name="패스 5422" d="M53.578,31.881h1.638v1.6H53.578Zm.052,3.52h1.534v8.119H53.63Z" transform="translate(-23.468 -13.964)" fill="#fff"/>
        <path id="패스_5423" data-name="패스 5423" d="M60.718,41.047A3.016,3.016,0,0,1,61.7,38.6a4,4,0,0,1,2.657-.828,3.792,3.792,0,0,1,2.64.889,3.036,3.036,0,0,1,.985,2.369V46.1H66.45V41.03q0-1.951-2.091-1.951-2.107,0-2.107,1.951V46.1H60.718Z" transform="translate(-26.595 -16.545)" fill="#fff"/>
        <path id="패스_5424" data-name="패스 5424" d="M83.141,45.581v-.575a3.468,3.468,0,0,1-2.473,1.063,3.339,3.339,0,0,1-2.509-1.028,4.4,4.4,0,0,1-1.081-3.084,4.694,4.694,0,0,1,1.081-3.118,3.138,3.138,0,0,1,2.509-1.1,3.488,3.488,0,0,1,2.613,1.15v-.923h1.394v7.125a4.329,4.329,0,0,1-1.046,3.345,4.7,4.7,0,0,1-3.1,1.045,10.479,10.479,0,0,1-2.474-.209V48.037a10.57,10.57,0,0,0,2.387.244,2.765,2.765,0,0,0,2.02-.67,2.736,2.736,0,0,0,.679-2.03m-2.125-.8a2.694,2.694,0,0,0,2.125-1.254V40.163a2.719,2.719,0,0,0-2.125-1.15,2.049,2.049,0,0,0-1.743.88,3.428,3.428,0,0,0-.644,2.082,3.132,3.132,0,0,0,.636,2,2.1,2.1,0,0,0,1.751.81" transform="translate(-33.761 -16.531)" fill="#fff"/>
        <path id="패스_5425" data-name="패스 5425" d="M102.844,42.407h5.819V43.7h-7.352V32.285h7.231v1.289h-5.7v3.659H108V38.5h-5.157Z" transform="translate(-44.375 -14.141)" fill="#fff"/>
        <path id="패스_5426" data-name="패스 5426" d="M120.547,41.036l2.073-2.892h1.725l-2.909,4.007,3.049,4.112h-1.69l-2.23-3.014-2.178,3.014h-1.725l3.031-4.129-2.909-3.99h1.69Z" transform="translate(-51.099 -16.708)" fill="#fff"/>
        <path id="패스_5427" data-name="패스 5427" d="M137.4,37.741a3.3,3.3,0,0,1,2.578,1.132,4.548,4.548,0,0,1,1.01,3.136,4.535,4.535,0,0,1-1.036,3.162,3.316,3.316,0,0,1-2.553,1.141,3.688,3.688,0,0,1-2.491-.976v4.129H133.38v-11.5h1.394v.958a3.571,3.571,0,0,1,2.631-1.185m-.331,7.282a2.055,2.055,0,0,0,1.777-.845,3.618,3.618,0,0,0,.61-2.169,3.47,3.47,0,0,0-.61-2.125,2.04,2.04,0,0,0-1.742-.854h0a2.643,2.643,0,0,0-2.2,1.272v3.554a2.937,2.937,0,0,0,2.143,1.167Z" transform="translate(-58.422 -16.531)" fill="#fff"/>
        <path id="패스_5428" data-name="패스 5428" d="M151.382,42.71a2.4,2.4,0,0,0,.819,1.707,2.971,2.971,0,0,0,1.811.645A10.1,10.1,0,0,0,156.8,44.8V46a9.963,9.963,0,0,1-2.787.348,3.915,3.915,0,0,1-4.129-4.321,4.553,4.553,0,0,1,1.046-3.153,3.569,3.569,0,0,1,5.287.008,4.45,4.45,0,0,1,1.019,3.023v.8Zm.035-1.167h4.3a2.945,2.945,0,0,0-.583-1.908,1.953,1.953,0,0,0-1.577-.67,1.911,1.911,0,0,0-1.516.662,3.045,3.045,0,0,0-.627,1.916" transform="translate(-65.651 -16.517)" fill="#fff"/>
        <path id="패스_5429" data-name="패스 5429" d="M166.847,37.967h1.393v1.341a3.168,3.168,0,0,1,3.206-1.533v1.289l-.523-.017a2.926,2.926,0,0,0-2.544,1.62v5.418h-1.533Z" transform="translate(-73.081 -16.531)" fill="#fff"/>
        <path id="패스_5430" data-name="패스 5430" d="M177.508,31.881h1.638v1.6h-1.638Zm.052,3.52h1.533v8.119H177.56Z" transform="translate(-77.75 -13.964)" fill="#fff"/>
        <path id="패스_5431" data-name="패스 5431" d="M185.658,42.71a2.4,2.4,0,0,0,.819,1.707,2.972,2.972,0,0,0,1.812.645,10.1,10.1,0,0,0,2.787-.261V46a9.968,9.968,0,0,1-2.787.348,3.915,3.915,0,0,1-4.129-4.321,4.555,4.555,0,0,1,1.045-3.153,3.569,3.569,0,0,1,5.287.008,4.45,4.45,0,0,1,1.019,3.023v.8Zm.035-1.167H190a2.952,2.952,0,0,0-.584-1.908,1.953,1.953,0,0,0-1.577-.67,1.908,1.908,0,0,0-1.515.662,3.039,3.039,0,0,0-.627,1.916" transform="translate(-80.664 -16.517)" fill="#fff"/>
        <path id="패스_5432" data-name="패스 5432" d="M201.012,41.047A3.016,3.016,0,0,1,202,38.6a4,4,0,0,1,2.656-.828,3.793,3.793,0,0,1,2.64.889,3.038,3.038,0,0,1,.984,2.369V46.1h-1.534V41.03q0-1.951-2.091-1.951-2.107,0-2.107,1.951V46.1h-1.533Z" transform="translate(-88.045 -16.545)" fill="#fff"/>
        <path id="패스_5433" data-name="패스 5433" d="M218.864,42.024a3.027,3.027,0,0,0,.679,2.056,3.076,3.076,0,0,0,2.4.923A10.624,10.624,0,0,0,224,44.811v1.254a6.662,6.662,0,0,1-2.265.244,4.822,4.822,0,0,1-3.293-1.272,4.558,4.558,0,0,1,.044-6.063,4.645,4.645,0,0,1,3.249-1.237,7.864,7.864,0,0,1,2.213.244v1.254a9.407,9.407,0,0,0-2-.209,3.021,3.021,0,0,0-2.4.958,2.881,2.881,0,0,0-.679,2.038" transform="translate(-95.185 -16.528)" fill="#fff"/>
        <path id="패스_5434" data-name="패스 5434" d="M232.807,42.71a2.4,2.4,0,0,0,.819,1.707,2.971,2.971,0,0,0,1.811.645,10.1,10.1,0,0,0,2.787-.261V46a9.962,9.962,0,0,1-2.787.348,3.915,3.915,0,0,1-4.129-4.321,4.553,4.553,0,0,1,1.046-3.153,3.569,3.569,0,0,1,5.287.008,4.45,4.45,0,0,1,1.019,3.023v.8Zm.035-1.167h4.3a2.946,2.946,0,0,0-.583-1.908,1.953,1.953,0,0,0-1.577-.67,1.911,1.911,0,0,0-1.516.662,3.045,3.045,0,0,0-.627,1.916" transform="translate(-101.316 -16.517)" fill="#fff"/>
        <path id="패스_5435" data-name="패스 5435" d="M253.629,37.684a5.6,5.6,0,0,1,1.542-4.129,6.134,6.134,0,0,1,4.295-1.655,12.8,12.8,0,0,1,2.77.157v1.272a11.223,11.223,0,0,0-2.544-.157,4.283,4.283,0,0,0-4.512,4.582v.192a4.2,4.2,0,0,0,1.272,3.267,5.164,5.164,0,0,0,3.276,1.28,10.718,10.718,0,0,0,2.56-.122v1.272a12.413,12.413,0,0,1-2.787.122,6.426,6.426,0,0,1-4.321-1.646,5.5,5.5,0,0,1-1.551-4.138Z" transform="translate(-111.092 -13.966)" fill="#fff"/>
        <path id="패스_5436" data-name="패스 5436" d="M272.526,42.71a2.4,2.4,0,0,0,.819,1.707,2.972,2.972,0,0,0,1.812.645,10.1,10.1,0,0,0,2.787-.261V46a9.967,9.967,0,0,1-2.787.348,3.916,3.916,0,0,1-4.129-4.321,4.553,4.553,0,0,1,1.046-3.153A3.382,3.382,0,0,1,274.7,37.71a3.349,3.349,0,0,1,2.656,1.176,4.45,4.45,0,0,1,1.019,3.023v.8Zm.035-1.167h4.3a2.945,2.945,0,0,0-.584-1.908,1.952,1.952,0,0,0-1.576-.67,1.91,1.91,0,0,0-1.516.662,3.039,3.039,0,0,0-.627,1.916" transform="translate(-118.713 -16.517)" fill="#fff"/>
        <path id="패스_5437" data-name="패스 5437" d="M287.879,41.047a3.016,3.016,0,0,1,.985-2.447,4,4,0,0,1,2.657-.828,3.792,3.792,0,0,1,2.64.889,3.036,3.036,0,0,1,.985,2.369V46.1h-1.534V41.03q0-1.951-2.091-1.951-2.107,0-2.107,1.951V46.1h-1.534Z" transform="translate(-126.094 -16.545)" fill="#fff"/>
        <path id="패스_5438" data-name="패스 5438" d="M306.227,41.816a1.284,1.284,0,0,0,.348,1.045,1.413,1.413,0,0,0,.924.314h1.22v1.237h-1.429a2.215,2.215,0,0,1-2.561-2.544V37.286h-1.6v-1.22h1.6v-2.2l1.5-.47v2.666h2.091v1.22h-2.091Z" transform="translate(-132.772 -14.63)" fill="#fff"/>
        <path id="패스_5439" data-name="패스 5439" d="M316.245,42.71a2.4,2.4,0,0,0,.819,1.707,2.972,2.972,0,0,0,1.812.645,10.1,10.1,0,0,0,2.787-.261V46a9.968,9.968,0,0,1-2.787.348,3.916,3.916,0,0,1-4.13-4.321,4.553,4.553,0,0,1,1.046-3.153,3.569,3.569,0,0,1,5.287.008,4.45,4.45,0,0,1,1.019,3.023v.8Zm.035-1.167h4.3A2.946,2.946,0,0,0,320,39.635a1.952,1.952,0,0,0-1.576-.67,1.91,1.91,0,0,0-1.516.662,3.042,3.042,0,0,0-.627,1.916" transform="translate(-137.862 -16.517)" fill="#fff"/>
        <path id="패스_5440" data-name="패스 5440" d="M331.711,37.967H333.1v1.341a3.124,3.124,0,0,1,2.684-1.568,3.093,3.093,0,0,1,.523.035v1.289l-.523-.017a2.926,2.926,0,0,0-2.544,1.62v5.418h-1.533Z" transform="translate(-145.293 -16.531)" fill="#fff"/>
      </g>
    </g>
  </g>
</svg>
